<svg width="164" height="50" viewBox="0 0 164 50" fill="none" xmlns="http://www.w3.org/2000/svg">
<mask id="mask0_234_71" style="mask-type:luminance" maskUnits="userSpaceOnUse" x="0" y="0" width="40" height="50">
<path d="M39.25 0H0V50H39.25V0Z" fill="white"/>
</mask>
<g mask="url(#mask0_234_71)">
<path d="M4.84473 10.0217L29.701 18.361L10.0513 35.719L4.84473 10.0217Z" fill="#1B12C7"/>
<path d="M11.3633 17.2871L36.2197 25.6265L16.5699 42.9845L11.3633 17.2871Z" fill="#00E8F7"/>
</g>
<path d="M54.603 14.715H58.353V35.625H54.453L45.693 21.165V35.625H41.943V14.715H45.813L54.603 29.115V14.715ZM75.2947 28.035C75.2947 28.485 75.2647 28.935 75.2047 29.415H65.0647C65.2147 31.365 66.4147 32.655 68.7547 32.655C70.0747 32.655 71.2747 32.235 72.2947 31.065L74.7847 33.255C73.1647 35.055 71.2147 35.925 68.7247 35.925C63.6247 35.925 61.4647 32.265 61.4647 28.305C61.4647 24.435 63.5647 20.535 68.4847 20.535C73.0747 20.535 75.2947 23.925 75.2947 28.035ZM65.0347 26.565H71.8447C71.7847 24.675 70.3447 23.535 68.4547 23.535C66.2647 23.535 65.2447 25.095 65.0347 26.565ZM75.9412 35.625L81.0112 28.185L75.9412 20.835H80.3512L83.4112 25.725L86.4712 20.835H90.8812L85.7812 28.185L90.8812 35.625H86.4712L83.4112 30.645L80.3512 35.625H75.9412ZM100.893 23.685H97.203V31.215C97.203 32.385 97.923 32.925 99.093 32.925C99.603 32.925 100.233 32.805 100.893 32.595V35.475C99.993 35.775 99.093 35.925 98.193 35.925C95.703 35.925 93.603 34.635 93.603 31.485V23.685H91.203V20.835H93.603V17.985L97.203 15.315V20.835H100.893V23.685ZM109.481 35.925C104.651 35.925 102.311 32.175 102.311 28.275C102.311 24.375 104.621 20.535 109.451 20.535C112.391 20.535 114.701 21.945 115.841 24.885L112.421 26.235C112.031 24.675 110.921 23.685 109.451 23.685C106.961 23.685 106.001 25.935 106.001 28.275C106.001 30.615 106.931 32.775 109.451 32.775C110.891 32.775 112.031 31.815 112.421 30.285L115.691 31.545C114.701 34.305 112.421 35.925 109.481 35.925ZM124.069 35.925C119.479 35.925 116.659 32.385 116.659 28.215C116.659 24.015 119.479 20.535 124.069 20.535C128.629 20.535 131.479 24.015 131.479 28.215C131.479 32.385 128.629 35.925 124.069 35.925ZM124.069 32.775C126.799 32.775 127.879 30.615 127.879 28.215C127.879 25.785 126.799 23.685 124.069 23.685C121.339 23.685 120.259 25.785 120.259 28.215C120.259 30.615 121.339 32.775 124.069 32.775ZM141.646 20.535C142.636 20.535 143.506 20.775 144.466 21.375L142.726 24.555C142.216 24.225 141.646 24.045 140.926 24.045C138.736 24.045 137.656 25.395 137.656 28.185V35.625H134.056V20.835H137.686V23.355C138.316 21.525 139.966 20.535 141.646 20.535ZM157.84 28.035C157.84 28.485 157.81 28.935 157.75 29.415H147.61C147.76 31.365 148.96 32.655 151.3 32.655C152.62 32.655 153.82 32.235 154.84 31.065L157.33 33.255C155.71 35.055 153.76 35.925 151.27 35.925C146.17 35.925 144.01 32.265 144.01 28.305C144.01 24.435 146.11 20.535 151.03 20.535C155.62 20.535 157.84 23.925 157.84 28.035ZM147.58 26.565H154.39C154.33 24.675 152.89 23.535 151 23.535C148.81 23.535 147.79 25.095 147.58 26.565Z" fill="white"/>
</svg>
